<svg xmlns="http://www.w3.org/2000/svg" id="female" viewBox="0 0 100 100" width="100" height="100"><defs><style>.cls-1{fill:#e6e6e6}.cls-2{fill:#b3b3b3}</style></defs><circle cx="50" cy="50" r="50" class="cls-1"/><path d="M421 367.4l-12.61-3.16-.73-2.91c8.7-1.46 13.18-4.07 13.37-4.19a1.64 1.64 0 0 0 .8-1.31 1.62 1.62 0 0 0-.63-1.4c-.06-.05-5.94-4.91-5.94-21.74 0-14.2-3.32-21.4-9.87-21.4h-1C402 309 400.27 308 395.5 308c-6.18 0-19.75 6.22-19.75 24.69 0 16.83-5.88 21.69-5.92 21.72a1.64 1.64 0 0 0-.66 1.4 1.66 1.66 0 0 0 .79 1.33c.2.12 4.63 2.74 13.39 4.2l-.73 2.9L370 367.4a18.54 18.54 0 0 0-9 5.29 50 50 0 0 0 69.46.52 18.54 18.54 0 0 0-9.46-5.81z" class="cls-2" transform="translate(-346 -287)"/></svg>