<svg xmlns="http://www.w3.org/2000/svg" id="male" viewBox="0 0 100 100" width="100" height="100"><defs><style>.cls-1{fill:#e6e6e6}.cls-2{fill:#b3b3b3}</style></defs><circle cx="50" cy="50" r="50" class="cls-1"/><path d="M352 312.48c-2-.32-2.07-5.88-2.07-5.88s5.94-5.88 7.24-13.79c3.48 0 5.63-8.41 2.15-11.37.15-3.11 4.48-24.44-17.45-24.44s-17.6 21.33-17.45 24.44c-3.49 3-1.34 11.37 2.15 11.37 1.29 7.91 7.23 13.79 7.23 13.79s0 5.56-2.06 5.88c-4.06.64-15 5-22.71 11.11a49.94 49.94 0 0 0 65.79.09c-7.68-6.11-18.72-10.55-22.82-11.2z" class="cls-2" transform="translate(-292 -236)"/></svg>