<svg xmlns="http://www.w3.org/2000/svg"><symbol id="delete-photo" viewBox="0 0 900.5 900.5"><path d="M176.415 880.5c0 11.046 8.954 20 20 20h507.67c11.046 0 20-8.954 20-20V232.487h-547.67V880.5zM562.75 342.766h75v436.029h-75V342.766zm-150 0h75v436.029h-75V342.766zm-150 0h75v436.029h-75V342.766zM618.825 91.911V20c0-11.046-8.954-20-20-20h-297.15c-11.046 0-20 8.954-20 20v96.911H141.874c-11.046 0-20 8.954-20 20v50.576c0 11.045 8.954 20 20 20h616.752c11.046 0 20-8.955 20-20v-50.576c0-11.046-8.954-20-20-20H618.825v-25zm-75 20.888h-187.15V75h187.15v37.799z"/></symbol><symbol id="pencil-edit" viewBox="0 0 528.9 528.9"><path d="M328.883 89.125l107.59 107.589-272.34 272.34L56.604 361.465l272.279-272.34zm189.23-25.948l-47.981-47.981c-18.543-18.543-48.653-18.543-67.259 0l-45.961 45.961 107.59 107.59 53.611-53.611c14.382-14.383 14.382-37.577 0-51.959zM.3 512.69c-1.958 8.812 5.998 16.708 14.811 14.565l119.891-29.069L27.473 390.597.3 512.69z"/></symbol><symbol id="add-comment" viewBox="0 0 489.6 432.4"><path d="M118.4 401.4c38.1 20.3 81.6 31 126.3 31 135.1 0 244.9-97 244.9-216.2S379.9 0 244.9 0 0 97 0 216.2c0 47.1 17.6 93.2 49.7 130.6-6.8 14.8-16.6 26.5-29.3 34.8a18.6 18.6 0 0 0 7.4 34.1 164.9 164.9 0 0 0 23.3 1.6c24.8 0 47.3-5.3 67.3-15.9zm-43.2-52.6a12.3 12.3 0 0 0-2.5-12.6C41 301.8 24.2 260.4 24.2 216.3c0-105.7 98.9-191.7 220.4-191.7S465 110.6 465 216.3 366.1 408 244.6 408c-42.8 0-84.4-10.8-120.3-31.2a12.1 12.1 0 0 0-6.1-1.6 11.7 11.7 0 0 0-6.3 1.7c-17.5 10.6-38 15.9-60.9 15.9h-5.1a108.9 108.9 0 0 0 29.3-44z"/><path d="M161.4 216.3a12.3 12.3 0 0 1 12.3-12.3h58.6v-58.8a12.3 12.3 0 0 1 24.6 0v58.6h58.8a12.3 12.3 0 1 1 0 24.6h-58.6v58.8a12.3 12.3 0 0 1-24.6 0v-58.7h-58.8a12.2 12.2 0 0 1-12.3-12.2z"/></symbol><symbol id="date" viewBox="0 0 352 384"><path d="M295.1 21.2h-21.3V0h-32.2v21.2h-49.5V0h-32.2v21.2h-49.6V0H78.1v21.2H56.9A56.9 56.9 0 0 0 0 78.1v147.2a56.9 56.9 0 0 0 56.9 56.9h4a116 116 0 0 0 230.2 0h4a56.9 56.9 0 0 0 56.9-56.9V78.1a56.9 56.9 0 0 0-56.9-56.9zM56.9 49.4h21.2v11.2h32.2V49.4h49.6v11.2h32.2V49.4h49.5v11.2h32.2V49.4h21.3a28.8 28.8 0 0 1 28.7 28.7v8.7H28.2v-8.7a28.8 28.8 0 0 1 28.7-28.7zM176 355.8a87.8 87.8 0 0 1-86.6-73.6 90.9 90.9 0 0 1 0-28.2 87.7 87.7 0 0 1 173.2 0 90.9 90.9 0 0 1 0 28.2 87.8 87.8 0 0 1-86.6 73.6zM295.1 254h-4a116 116 0 0 0-230.2 0h-4a28.8 28.8 0 0 1-28.7-28.7V115h295.6v110.3a28.8 28.8 0 0 1-28.7 28.7z"/><path d="M190.1 262.3v-33.6a14.1 14.1 0 0 0-14.1-14.1 14.1 14.1 0 0 0-14.1 14.1v45.2l26.5 26.5a14.1 14.1 0 1 0 19.9-19.9z"/></symbol><symbol id="create-account" viewBox="0 0 489.8 489.8"><path d="M438.2 0H51.6C23.1 0 0 23.2 0 51.6v386.6c0 28.5 23.2 51.6 51.6 51.6h386.6c28.5 0 51.6-23.2 51.6-51.6V51.6c0-28.4-23.2-51.6-51.6-51.6zm27.1 438.2c0 14.9-12.2 27.1-27.1 27.1H51.6c-14.9 0-27.1-12.2-27.1-27.1V51.6c0-14.9 12.2-27.1 27.1-27.1h386.6c14.9 0 27.1 12.2 27.1 27.1v386.6z"/><path d="M337.4 232.7h-80.3v-80.3c0-6.8-5.5-12.3-12.3-12.3s-12.3 5.5-12.3 12.3v80.3h-80.3c-6.8 0-12.3 5.5-12.3 12.2 0 6.8 5.5 12.3 12.3 12.3h80.3v80.3c0 6.8 5.5 12.3 12.3 12.3s12.3-5.5 12.3-12.3v-80.3h80.3c6.8 0 12.3-5.5 12.3-12.3 0-6.8-5.5-12.2-12.3-12.2z"/></symbol><symbol id="ceate-event" viewBox="0 0 490.3 489.6"><path d="M229.9 145l-47.5 47.5c-17.5 17.5-35.1 35-52.5 52.7a32.6 32.6 0 0 0-8.4 15.3c-6.3 28.9-12.4 57.8-18.5 86.7l-3.4 16c-1.6 7.8.5 15.6 5.8 20.9a22.3 22.3 0 0 0 15.8 6.4 29.4 29.4 0 0 0 5.1-.5l17.6-3.7 84.1-17.7a32.6 32.6 0 0 0 16.7-9q117.9-118 235.8-235.8a33.1 33.1 0 0 0 9.8-21.2 13.9 13.9 0 0 0-.3-4.1c-.5-2-.9-4.1-1.4-6.1-1.1-5.1-2.3-10.9-4.7-16.5-14.7-33.6-39.1-57.6-72.5-71.1-6.7-2.7-13.8-3.6-20-4.4l-1.7-.2c-9-1.1-17.2 1.9-24.3 9.1Q297.9 77.1 229.9 145zM386.4 24.3h.5l1.7.2c5.2.6 10 1.2 13.8 2.8 27.2 11 47.2 30.6 59.3 58.2a62.3 62.3 0 0 1 3.2 11.6c.3 1.6.7 3.2 1 4.8a7.6 7.6 0 0 1-2.5 4.3Q345.4 224 227.5 342a7.9 7.9 0 0 1-4.3 2.3L139 362l-14.8 3.1L127 352c6.1-28.8 12.2-57.7 18.4-86.5a8.7 8.7 0 0 1 1.9-3.3q26.1-26.4 52.3-52.5l47.5-47.5q67.9-67.9 135.8-136c1.9-1.6 2.8-1.9 3.5-1.9z"/><path d="M38.9 109h174.6a12.3 12.3 0 1 0 0-24.6H38.9A38.9 38.9 0 0 0 0 123.3v327.4a38.9 38.9 0 0 0 38.9 38.9h327.3a38.9 38.9 0 0 0 38.9-38.9V283.2a12.3 12.3 0 0 0-24.6 0v167.5a14.5 14.5 0 0 1-14.4 14.4H38.9a14.5 14.5 0 0 1-14.4-14.4V123.4A14.5 14.5 0 0 1 38.9 109z"/><path d="M385 12.6l-48 44s-36.6 40-42.3 45l-33.7 30s-28 28-32 33-28 21.2-35 30.6-35 40.4-39 44.4-11 14-14 20-8 14-11 21-4.6 25-5.8 30-9.2 23-10.2 31a92.4 92.4 0 0 0 0 23.5c1 7.5 10.2 11.5 10.2 11.5s42.8-10 50.8-11.5l70.2-13.5 232.8-243-12.1-50-32.9-29-27.9-17z"/></symbol><symbol id="description" viewBox="0 0 489.3 489.3"><path d="M265 369.25c6.8 0 12.3-5.5 12.3-12.3s-5.5-12.3-12.3-12.3H38.4c-7.7 0-13.9-6.2-13.9-13.9V77.35c0-7.7 6.2-13.9 13.9-13.9H451c7.7 0 13.9 6.2 13.9 13.9v253.6c0 7.7-6.2 13.9-13.9 13.9h-30.2c-6.8 0-12.3 5.5-12.3 12.3v60.9l-69.5-69.5c-4.8-4.8-12.5-4.8-17.3 0s-4.8 12.5 0 17.3l78.9 78.9c3.6 3.6 8.5 5.6 13.4 5.6 2.4 0 4.9-.5 7.3-1.4 7.1-2.9 11.7-9.8 11.7-17.5v-61.9h17.9c21.2 0 38.4-17.2 38.4-38.4V77.35c0-21.2-17.2-38.4-38.4-38.4H38.4C17.2 38.95 0 56.15 0 77.35v253.6c0 21.2 17.2 38.4 38.4 38.4H265v-.1z"/><path d="M88.1 152.85h313.2c6.8 0 12.3-5.5 12.3-12.3s-5.5-12.3-12.3-12.3H88.1c-6.8 0-12.3 5.5-12.3 12.3s5.5 12.3 12.3 12.3zm0 65.9h313.2c6.8 0 12.3-5.5 12.3-12.3s-5.5-12.3-12.3-12.3H88.1c-6.8 0-12.3 5.5-12.3 12.3s5.5 12.3 12.3 12.3zm156.6 65.9h156.6c6.8 0 12.3-5.5 12.3-12.3s-5.5-12.3-12.3-12.3H244.7c-6.8 0-12.3 5.5-12.3 12.3.1 6.8 5.5 12.3 12.3 12.3z"/></symbol><symbol id="events" viewBox="0 0 489.8 489.8"><path d="M359.1 161.693v-88.3c0-4.6-2.5-8.7-6.6-10.8-4-2.1-8.9-1.8-12.7.8-87.8 60.7-138.2 68.5-172.3 68.5H70c-38.6 0-70 31.4-70 70v26c0 38.6 31.4 70 70 70h46.8l50.8 123.1c1.9 4.7 6.5 7.6 11.3 7.6 1.6 0 3.1-.3 4.7-.9 6.3-2.6 9.2-9.7 6.7-16l-47-113.8h24.1c118.8 0 167.4 62.9 169.6 65.8 2.4 3.2 6 5 9.8 5 1.3 0 2.6-.2 3.8-.6 5-1.7 8.4-6.3 8.4-11.6v-88.2c24.3-5.6 42.4-27.3 42.4-53.3.2-26-18-47.8-42.3-53.3zm-334.6 66.2v-26c0-25.1 20.4-45.5 45.5-45.5h42.8v117H70c-25.1 0-45.5-20.4-45.5-45.5zm310.1 99.1c-27.2-22.4-80.6-53.6-167.2-53.6h-30.2v-117h30.2c35 0 85.2-7.2 167.2-60v230.6zm24.5-84.5v-55.1c10.6 4.7 17.9 15.3 17.9 27.6.1 12.2-7.3 22.8-17.9 27.5zm118.4-39.8h-47.9c-6.8 0-12.3 5.5-12.3 12.3s5.5 12.3 12.3 12.3h47.9c6.8 0 12.3-5.5 12.3-12.3 0-6.9-5.5-12.3-12.3-12.3zm-64.9-25.8c1.9 4.8 6.5 7.8 11.4 7.8 1.5 0 3-.3 4.5-.8l46.4-18.2c6.3-2.5 9.4-9.6 6.9-15.9-2.5-6.3-9.6-9.4-15.9-6.9l-46.4 18.2c-6.2 2.4-9.3 9.5-6.9 15.8zm62.3 87.2l-46.4-18.2c-6.3-2.5-13.4.6-15.9 6.9-2.5 6.3.6 13.4 6.9 15.9l46.4 18.2c1.5.6 3 .8 4.5.8 4.9 0 9.5-3 11.4-7.8 2.5-6.2-.6-13.3-6.9-15.8z"/></symbol><symbol id="cover-photo" viewBox="0 0 490 490"><path d="M0 167.85v216.2c0 33 26.8 59.8 59.8 59.8h370.4c33 0 59.8-26.8 59.8-59.8v-216.2c0-31.4-25.5-56.9-56.9-56.9h-79.6l-1.9-8.3c-7.7-33.3-37-56.5-71.2-56.5h-70.9c-34.1 0-63.4 23.2-71.2 56.5l-1.9 8.3H56.9c-31.4 0-56.9 25.6-56.9 56.9zm146.2-32.4c5.7 0 10.6-3.9 11.9-9.5l4.1-17.8c5.2-22.1 24.6-37.5 47.3-37.5h70.9c22.7 0 42.1 15.4 47.3 37.5l4.1 17.8c1.3 5.5 6.2 9.5 11.9 9.5H433c17.9 0 32.4 14.5 32.4 32.4v216.2c0 19.5-15.8 35.3-35.3 35.3H59.8c-19.5 0-35.3-15.8-35.3-35.3v-216.2c0-17.9 14.5-32.4 32.4-32.4h89.3z"/><circle cx="82.9" cy="187.75" r="16.4"/><path d="M245 380.95c56.7 0 102.9-46.2 102.9-102.9s-46.2-102.9-102.9-102.9-102.9 46.1-102.9 102.9 46.2 102.9 102.9 102.9zm0-181.3c43.2 0 78.4 35.2 78.4 78.4s-35.2 78.4-78.4 78.4-78.4-35.2-78.4-78.4 35.2-78.4 78.4-78.4z"/></symbol><symbol id="friends" viewBox="0 0 489.6 489.6"><path d="M386.8 4.15c-34.1 0-61.8 27.7-61.8 61.8s27.7 61.8 61.8 61.8 61.8-27.7 61.8-61.8-27.7-61.8-61.8-61.8zm0 99.1c-20.6 0-37.3-16.7-37.3-37.3s16.7-37.3 37.3-37.3 37.3 16.7 37.3 37.3-16.7 37.3-37.3 37.3zm-142 24.5c34.1 0 61.8-27.7 61.8-61.8s-27.7-61.8-61.8-61.8-61.8 27.7-61.8 61.8c0 34.1 27.7 61.8 61.8 61.8zm0-99.1c20.6 0 37.3 16.7 37.3 37.3s-16.7 37.3-37.3 37.3c-20.6 0-37.3-16.7-37.3-37.3 0-20.5 16.7-37.3 37.3-37.3zm183.5 111.6h-52.6c-6.8 0-12.3 5.5-12.3 12.3s5.5 12.3 12.3 12.3h52.6c20.3 0 36.8 16.5 36.8 36.8v78.3c0 15.3-9.7 29.2-24.2 34.5-4.8 1.8-8 6.4-8 11.5v110.6c0 13.4-10.9 24.3-24.3 24.3H353c-6.8 0-12.3 5.5-12.3 12.3s5.5 12.3 12.3 12.3h55.6c26.9 0 48.8-21.9 48.8-48.8v-103c19.6-10.6 32.2-31.3 32.2-53.9v-78.3c0-33.8-27.5-61.2-61.3-61.2z"/><path d="M217 485.15h55.6c26.9 0 48.8-21.9 48.8-48.8v-102.7c19.6-10.6 32.2-31.3 32.2-53.9v-78.3c0-33.8-27.5-61.3-61.3-61.3h-95.1c-33.8 0-61.3 27.5-61.3 61.3v78.3c0 22.6 12.6 43.3 32.2 53.9v102.7c.1 26.9 22 48.8 48.9 48.8zm-56.5-205.4v-78.3c0-20.3 16.5-36.8 36.8-36.8h95.1c20.3 0 36.8 16.5 36.8 36.8v78.3c0 15.3-9.7 29.2-24.1 34.5-4.8 1.8-8 6.4-8 11.5v110.6c0 13.4-10.9 24.3-24.3 24.3h-55.6c-13.4 0-24.3-10.9-24.3-24.3v-110.6c0-5.1-3.2-9.7-8-11.5-14.7-5.3-24.4-19.2-24.4-34.5zm4.1-213.8c0-34.1-27.7-61.8-61.8-61.8S41 31.85 41 65.95s27.7 61.8 61.8 61.8c34 0 61.8-27.7 61.8-61.8zm-99.1 0c0-20.5 16.7-37.3 37.3-37.3s37.3 16.7 37.3 37.3-16.7 37.3-37.3 37.3c-20.6 0-37.3-16.7-37.3-37.3z"/><path d="M81 485.15h55.6c6.8 0 12.3-5.5 12.3-12.3s-5.5-12.3-12.3-12.3H81c-13.4 0-24.3-10.9-24.3-24.3v-110.5c0-5.1-3.2-9.7-8-11.5-14.4-5.3-24.1-19.1-24.1-34.5v-78.3c0-20.3 16.5-36.8 36.8-36.8h52.4c6.8 0 12.3-5.5 12.3-12.3s-5.5-12.3-12.3-12.3H61.3c-33.8 0-61.3 27.5-61.3 61.3v78.3c0 22.6 12.6 43.3 32.2 53.9v102.7c0 27 21.9 48.9 48.8 48.9z"/></symbol><symbol id="notifications" viewBox="0 0 369.4 386.5"><path d="M365 325.5l-83.6-140a24.2 24.2 0 0 1-3.4-12.3v-50.3c0-55-32-101.1-74.4-111.9a2.1 2.1 0 0 1-1.4-1c-.1-.2-.2-.3-.2-.5a20.7 20.7 0 0 0-34.7 0c-.1.2-.2.3-.2.5a2.1 2.1 0 0 1-1.4 1c-42.4 10.7-74.4 56.8-74.4 111.8v50.6a23.9 23.9 0 0 1-3.4 12.2L4.4 325.5A31 31 0 0 0 31 372.4h127.5a2.4 2.4 0 0 1 2 1.1c4.7 7.8 13.8 13 24.2 13s19.5-5.2 24.3-13a2.1 2.1 0 0 1 1.9-1h127.5a31 31 0 0 0 26.6-46.9zM342.9 344a5.2 5.2 0 0 1-4.5 2.6H31a5.2 5.2 0 0 1-4.5-2.6 5 5 0 0 1 .1-5.3l64.7-108.3 25.8-43.2v-64.3c0-43.7 24.3-80.2 56.2-87.2a47.2 47.2 0 0 1 11.3-1.3 48 48 0 0 1 11.4 1.3c31.9 7 56.2 43.5 56.2 87.2v64L278 230l64.9 108.6a5.1 5.1 0 0 1 0 5.4z"/></symbol><symbol id="o-clock" viewBox="0 0 384 384"><path d="M194.7 0C86.7-1.5-1.5 86.7 0 194.7 1.4 296.5 87.5 382.6 189.3 384c108 1.5 196.2-86.7 194.7-194.7C382.6 87.5 296.5 1.4 194.7 0zm1 354.3c-92.5 2.1-168.1-73.5-166-165.9 1.9-86.5 72.2-156.8 158.7-158.7 92.4-2.1 168 73.5 165.9 166-1.9 86.4-72.2 156.7-158.6 158.6z"/><path d="M189.6 63.8a15 15 0 0 0-13.1 15.1v98.3h-68.4A15.1 15.1 0 0 0 93 190.3a14.8 14.8 0 0 0 14.7 16.5h95.8a2.6 2.6 0 0 0 2.6-2.6V78.5a14.8 14.8 0 0 0-16.5-14.7z"/></symbol><symbol id="join" viewBox="0 0 490.2 490.2"><path d="M418.5 418.5c95.6-95.6 95.6-251.2 0-346.8s-251.2-95.6-346.8 0-95.6 251.2 0 346.8 251.2 95.6 346.8 0zM89 89c86.1-86.1 226.1-86.1 312.2 0s86.1 226.1 0 312.2-226.1 86.1-312.2 0S3 175.1 89 89z"/><path d="M245.1 336.9c3.4 0 6.4-1.4 8.7-3.6 2.2-2.2 3.6-5.3 3.6-8.7v-67.3h67.3c3.4 0 6.4-1.4 8.7-3.6 2.2-2.2 3.6-5.3 3.6-8.7 0-6.8-5.5-12.3-12.2-12.2h-67.3v-67.3c0-6.8-5.5-12.3-12.2-12.2-6.8 0-12.3 5.5-12.2 12.2v67.3h-67.3c-6.8 0-12.3 5.5-12.2 12.2 0 6.8 5.5 12.3 12.2 12.2h67.3v67.3c-.3 6.9 5.2 12.4 12 12.4z"/></symbol><symbol id="like" viewBox="0 0 490.4 490.4"><path d="M222.5 453.7c6.1 6.1 14.3 9.5 22.9 9.5 8.5 0 16.9-3.5 22.9-9.5L448 274c27.3-27.3 42.3-63.6 42.4-102.1 0-38.6-15-74.9-42.3-102.2S384.6 27.4 346 27.4c-37.9 0-73.6 14.5-100.7 40.9-27.2-26.5-63-41.1-101-41.1-38.5 0-74.7 15-102 42.2C15 96.7 0 133 0 171.6c0 38.5 15.1 74.8 42.4 102.1l180.1 180zM59.7 86.8c22.6-22.6 52.7-35.1 84.7-35.1s62.2 12.5 84.9 35.2l7.4 7.4c2.3 2.3 5.4 3.6 8.7 3.6 3.2 0 6.4-1.3 8.7-3.6l7.2-7.2c22.7-22.7 52.8-35.2 84.9-35.2 32 0 62.1 12.5 84.7 35.1 22.7 22.7 35.1 52.8 35.1 84.8s-12.5 62.1-35.2 84.8L251 436.4c-2.9 2.9-8.2 2.9-11.2 0l-180-180c-22.7-22.7-35.2-52.8-35.2-84.8s12.5-62.1 35.1-84.8z"/></symbol><symbol id="more" viewBox="0 0 490 490"><path d="M304.5 245c0-32.8-26.7-59.5-59.5-59.5s-59.5 26.7-59.5 59.5 26.7 59.5 59.5 59.5 59.5-26.7 59.5-59.5zM245 280c-19.3 0-35-15.7-35-35s15.7-35 35-35 35 15.7 35 35-15.7 35-35 35zM59.5 185.5C26.7 185.5 0 212.2 0 245s26.7 59.5 59.5 59.5S119 277.8 119 245s-26.7-59.5-59.5-59.5zm0 94.5c-19.3 0-35-15.7-35-35s15.7-35 35-35 35 15.7 35 35-15.7 35-35 35zm371-94.5c-32.8 0-59.5 26.7-59.5 59.5s26.7 59.5 59.5 59.5S490 277.8 490 245s-26.7-59.5-59.5-59.5zm0 94.5c-19.3 0-35-15.7-35-35s15.7-35 35-35 35 15.7 35 35-15.7 35-35 35z"/></symbol><symbol id="sign-in" viewBox="0 0 471.5 386.8"><path d="M161 106.2V59.6a34.4 34.4 0 0 1 34.3-34.4h216.6a34.5 34.5 0 0 1 34.4 34.4v267.7a34.4 34.4 0 0 1-34.4 34.3H195.3a34.4 34.4 0 0 1-34.3-34.3v-46.7a12.6 12.6 0 1 0-25.2 0v46.7a59.6 59.6 0 0 0 59.5 59.5h216.6a59.7 59.7 0 0 0 59.6-59.5V59.6A59.7 59.7 0 0 0 411.9 0H195.3a59.7 59.7 0 0 0-59.5 59.6v46.6a12.6 12.6 0 0 0 25.2 0z"/><path d="M219.8 287.4a12.4 12.4 0 0 1 0-17.5l67.8-67.8a12.3 12.3 0 0 0 0-17.4l-67.8-67.8a12.4 12.4 0 0 1 0-17.5 12.3 12.3 0 0 1 17.4 0l85.3 85.3a12.3 12.3 0 0 1 0 17.4l-85.3 85.3a12.3 12.3 0 0 1-17.4 0z"/><rect width="326.1" height="24.67" y="181.1" rx="12.3" ry="12.3"/></symbol><symbol id="sign-out" viewBox="0 0 500 387.4"><path d="M322.7 119a12.5 12.5 0 0 0 12.6-12.6V59.7A59.7 59.7 0 0 0 275.8 0H59.5A59.7 59.7 0 0 0 0 59.7v268a59.7 59.7 0 0 0 59.5 59.7h216.3a59.7 59.7 0 0 0 59.5-59.7V281a12.6 12.6 0 0 0-25.2 0v46.7a34.4 34.4 0 0 1-34.3 34.4H59.5a34.4 34.4 0 0 1-34.3-34.4v-268a34.5 34.5 0 0 1 34.3-34.5h216.3a34.5 34.5 0 0 1 34.3 34.5v46.7a12.6 12.6 0 0 0 12.6 12.6zm71.1 168.8a12.4 12.4 0 0 1 0-17.5l67.7-67.9a12.1 12.1 0 0 0 0-17.4l-67.7-68a12.3 12.3 0 0 1 0-17.4 12.3 12.3 0 0 1 17.4 0l85.2 85.4a12.3 12.3 0 0 1 0 17.4l-85.2 85.4a12.3 12.3 0 0 1-17.4 0z"/><rect width="325.7" height="24.7" x="174.3" y="181.3" rx="12.3" ry="12.3"/></symbol><symbol id="sign-up" viewBox="0 0 458.5 386.8"><path d="M148 106.2V59.6a34.5 34.5 0 0 1 34.4-34.4h216.5a34.4 34.4 0 0 1 34.4 34.4v267.7a34.4 34.4 0 0 1-34.4 34.3H182.4a34.4 34.4 0 0 1-34.4-34.3v-46.7a12.6 12.6 0 1 0-25.2 0v46.7a59.6 59.6 0 0 0 59.6 59.5h216.5a59.6 59.6 0 0 0 59.6-59.5V59.6A59.7 59.7 0 0 0 398.9 0H182.4a59.7 59.7 0 0 0-59.6 59.6v46.6a12.6 12.6 0 1 0 25.2 0z"/><rect width="211.7" height="24.67" x="146.8" y="241.8" rx="12.3" ry="12.3" transform="rotate(-90 222.35 223.75)"/><rect width="358.6" height="24.67" y="181.1" rx="12.3" ry="12.3"/></symbol><symbol id="share" viewBox="0 0 489 489"><path d="M59.7 255.005c-44 53.5-59.7 116.5-59.7 157.6 0 5.6 3.7 10.4 9.1 11.8 1 .3 2.1.4 3.1.4 4.3 0 8.4-2.3 10.7-6.2 62.3-109.8 179.8-115.6 256.5-115.9v79.5c0 4.7 2.7 9.1 7 11.1s9.4 1.4 13-1.6l185.2-153.2c2.8-2.3 4.4-5.8 4.4-9.4 0-3.7-1.6-7.1-4.5-9.4l-185-152.7c-3.7-3-8.7-3.7-13-1.6-4.3 2-7 6.3-7 11.1v79.8c-117.8 4.3-184.4 55.6-219.8 98.7zm232.1-74.6c6.7-.1 12.1-5.5 12.1-12.3v-65.7l153.6 126.7-153.6 127.1v-65.7c0-3.2-1.3-6.4-3.6-8.7-2.3-2.3-5.4-3.6-8.7-3.6-71.3 0-184.7 0-260.6 86.6 19.1-75.4 84.8-182.7 260.8-184.4z"/></symbol><symbol id="submit-message" viewBox="0 0 488.6 488.6"><path d="M27.918 247.337l138.8 47.4c6.4 2.2 13.4-1.2 15.6-7.6 2.2-6.4-1.2-13.4-7.6-15.6l-138.9-47.4c-10.1-3.5-11.2-12.5-11.2-15.2-.1-2.7.4-11.8 10.3-15.9l406.1-167.1c9.5-3.9 16.2 1.8 18.1 3.6 1.8 1.8 7.5 8.6 3.6 18.1l-167.1 406.2c-4.1 9.9-13.2 10.4-15.9 10.3-2.7-.1-11.8-1.1-15.2-11.2l-45.2-132.4 144.4-170.2c4.4-5.2 3.7-12.9-1.4-17.3-5.2-4.4-12.9-3.7-17.3 1.4l-148.9 175.6c-2.8 3.3-3.6 7.8-2.3 11.9l47.5 138.8c5.6 16.4 20.4 27.3 37.7 27.8h1.3c16.8 0 31.6-9.9 38-25.5l167.1-406.1c6.4-15.6 3-32.8-9-44.7-12-12-29.1-15.4-44.7-9l-406.2 167.2c-16 6.6-26 22-25.5 39.3.6 17.2 11.5 32 27.9 37.6z"/></symbol><symbol id="public" viewBox="0 0 488.8 488.8"><path d="M45.7 258.3V453c0 19.7 16.1 35.8 35.8 35.8h325.8c19.7 0 35.8-16.1 35.8-35.8V258.3c0-19.7-16.1-35.8-35.8-35.8h-25.2v-84.8C382.1 61.8 320.3 0 244.4 0S106.7 61.8 106.7 137.7c0 6.8 5.5 12.3 12.3 12.3s12.3-5.5 12.3-12.3c0-62.4 50.8-113.2 113.2-113.2s113.2 50.8 113.2 113.2v84.8H81.5c-19.7.1-35.8 16.1-35.8 35.8zm372.9 0V453c0 6.2-5.1 11.3-11.3 11.3H81.5c-6.2 0-11.3-5.1-11.3-11.3V258.3c0-6.2 5.1-11.3 11.3-11.3h325.8c6.2.1 11.3 5.1 11.3 11.3z"/><path d="M244.4 405.5c27.5 0 49.9-22.4 49.9-49.9s-22.4-49.9-49.9-49.9-49.9 22.4-49.9 49.9c0 27.6 22.4 49.9 49.9 49.9zm0-75.2c14 0 25.4 11.4 25.4 25.4S258.4 381 244.4 381 219 369.6 219 355.6s11.4-25.3 25.4-25.3z"/></symbol><symbol id="location" viewBox="0 0 488.8 488.8"><path d="M244.252 97.4c-56.4 0-102.2 45.9-102.2 102.2s45.8 102.3 102.2 102.3 102.2-45.9 102.2-102.2-45.8-102.3-102.2-102.3zm0 180c-42.9 0-77.7-34.9-77.7-77.7s34.9-77.7 77.7-77.7 77.7 34.9 77.7 77.7-34.8 77.7-77.7 77.7z"/><path d="M244.252 0c-2.3 0-4.7 0-7 .1-98.6 3.4-180.1 80-189.5 178.1-1.8 19-.9 38.1 2.6 56.3 0 0 .3 2.3 1.4 6.6 3 13.5 7.5 26.6 13.2 38.8 20.3 48.1 64.8 122.2 161.4 202.4 5.1 4.2 11.5 6.5 18.1 6.5 6.6 0 13-2.3 18.1-6.5 96.5-80.1 141-154.3 161.2-202 5.8-12.5 10.3-25.7 13.3-39.1.6-2.4 1-4.4 1.3-6.3 2.4-12.3 3.6-24.9 3.6-37.5-.2-108.8-88.8-197.4-197.7-197.4zm169.8 230.7c0 .2-.3 1.9-1 5-2.7 11.8-6.6 23.3-11.8 34.7-19.3 45.6-61.7 116.1-154.4 193-.9.7-1.8.9-2.5.9-.6 0-1.6-.2-2.5-.9-92.7-77-135.2-147.5-154.6-193.4-5.1-11-9-22.5-11.7-34.4-.6-2.6-.9-4.2-1-4.7 0-.2-.1-.4-.1-.6-3.1-16.3-3.9-33.1-2.3-49.7 8.3-85.9 79.6-153 166-156 98.1-3.4 179.1 75.4 179.1 172.9 0 11-1.1 22-3.2 33.2z"/></symbol><symbol id="favorite" viewBox="0 0 490.73 490.73"><path d="M453.443 160.214l-119.7-8.6c-2.5-.2-4.7-1.7-5.6-4.1l-45.6-111c-6.3-15.3-20.5-24.8-37.1-24.8s-30.7 9.5-37.1 24.9l-45.7 111.1c-1 2.3-3.1 3.9-5.6 4.1l-119.5 8.6c-16.2.9-30 11.5-35.3 27.1-5.4 15.8-.9 32.4 11.9 43.3l92.5 76.4c1.9 1.6 2.8 4.2 2.2 6.6l-28.2 115.4c-3.3 12-1 24.4 6.3 34.1 7.5 9.8 19.2 15.7 31.5 15.7 7.6 0 15-2.3 21.1-6.4l101.1-62.9c2.1-1.3 4.8-1.3 6.9 0l102.1 62.7c6.4 4.3 13.8 6.6 21.3 6.6 11.5 0 22.9-5.5 30.3-14.8 7.7-9.6 10.5-22.1 7.7-34.6l-28.3-115.7c-.6-2.5.3-5.1 2.2-6.7l93.9-76.6c12.6-10.8 17.1-27.4 11.8-43.2-5.2-15.6-19.1-26.3-35.1-27.2zm7.7 51.5l-93.7 76.5c-9.2 7.5-13.4 19.9-10.5 31.5l28.3 115.5c1.5 6.8-1.2 11.5-3 13.7-2.8 3.5-7 5.7-11.2 5.7-2.6 0-5.2-.8-8-2.7l-102.5-63c-4.9-3-10.5-4.6-16.3-4.6s-11.5 1.6-16.4 4.7l-101.5 63.1c-6.5 4.3-15.2 2.4-19.8-3.6-1.9-2.5-3.9-6.8-2.1-13.1l28.3-115.8c2.8-11.5-1.3-23.8-10.4-31.3l-92.3-76.3c-7.3-6.3-5.3-14.4-4.5-16.7s4.1-10 13.7-10.5l119.7-8.6c11.8-.9 22-8.2 26.5-19.2l45.7-111.1c3.7-9 12-9.7 14.4-9.7 2.4 0 10.7.7 14.4 9.7l45.7 111.1c4.5 11 14.7 18.3 26.5 19.2l119.9 8.7c9.4.5 12.7 8.2 13.5 10.5.6 2.1 2.6 10.2-4.4 16.3z"/></symbol><symbol id="private" viewBox="0 0 488.8 488.8"><path d="M81.5 488.8h325.8c19.7 0 35.8-16.1 35.8-35.8V258.3c0-19.7-16.1-35.8-35.8-35.8h-25.2v-84.8C382.1 61.8 320.3 0 244.4 0S106.7 61.8 106.7 137.7v84.8H81.5c-19.7 0-35.8 16.1-35.8 35.8V453c0 19.7 16.1 35.8 35.8 35.8zm49.7-351.1c0-62.4 50.8-113.2 113.2-113.2s113.2 50.8 113.2 113.2v84.8H131.2v-84.8zm-61 120.6c0-6.2 5.1-11.3 11.3-11.3h325.8c6.2 0 11.3 5.1 11.3 11.3V453c0 6.2-5.1 11.3-11.3 11.3H81.5c-6.2 0-11.3-5.1-11.3-11.3V258.3z"/><path d="M244.4 405.5c27.5 0 49.9-22.4 49.9-49.9s-22.4-49.9-49.9-49.9-49.9 22.4-49.9 49.9c0 27.6 22.4 49.9 49.9 49.9zm0-75.2c14 0 25.4 11.4 25.4 25.4s-11.4 25.4-25.4 25.4c-14 0-25.4-11.4-25.4-25.4s11.4-25.4 25.4-25.4z"/></symbol><symbol id="male" viewBox="0 0 100 100"><defs><style>.cls-1{fill:#e6e6e6}.cls-2{fill:#b3b3b3}</style></defs><circle cx="50" cy="50" r="50" class="cls-1"/><path d="M352 312.48c-2-.32-2.07-5.88-2.07-5.88s5.94-5.88 7.24-13.79c3.48 0 5.63-8.41 2.15-11.37.15-3.11 4.48-24.44-17.45-24.44s-17.6 21.33-17.45 24.44c-3.49 3-1.34 11.37 2.15 11.37 1.29 7.91 7.23 13.79 7.23 13.79s0 5.56-2.06 5.88c-4.06.64-15 5-22.71 11.11a49.94 49.94 0 0 0 65.79.09c-7.68-6.11-18.72-10.55-22.82-11.2z" class="cls-2" transform="translate(-292 -236)"/></symbol><symbol id="female" viewBox="0 0 100 100"><defs><style>.cls-1{fill:#e6e6e6}.cls-2{fill:#b3b3b3}</style></defs><circle cx="50" cy="50" r="50" class="cls-1"/><path d="M421 367.4l-12.61-3.16-.73-2.91c8.7-1.46 13.18-4.07 13.37-4.19a1.64 1.64 0 0 0 .8-1.31 1.62 1.62 0 0 0-.63-1.4c-.06-.05-5.94-4.91-5.94-21.74 0-14.2-3.32-21.4-9.87-21.4h-1C402 309 400.27 308 395.5 308c-6.18 0-19.75 6.22-19.75 24.69 0 16.83-5.88 21.69-5.92 21.72a1.64 1.64 0 0 0-.66 1.4 1.66 1.66 0 0 0 .79 1.33c.2.12 4.63 2.74 13.39 4.2l-.73 2.9L370 367.4a18.54 18.54 0 0 0-9 5.29 50 50 0 0 0 69.46.52 18.54 18.54 0 0 0-9.46-5.81z" class="cls-2" transform="translate(-346 -287)"/></symbol></svg>